<svg width="55" height="55" viewBox="0 0 55 55" fill="none" xmlns="http://www.w3.org/2000/svg">
<path d="M0 19.9047C0 12.9374 0 9.45377 1.35593 6.79262C2.54864 4.4518 4.4518 2.54864 6.79262 1.35593C9.45377 0 12.9374 0 19.9047 0H35.0953C42.0626 0 45.5463 0 48.2073 1.35593C50.5481 2.54864 52.4513 4.4518 53.6441 6.79262C55 9.45377 55 12.9374 55 19.9047V35.0953C55 42.0626 55 45.5463 53.6441 48.2073C52.4513 50.5481 50.5481 52.4513 48.2073 53.6441C45.5463 55 42.0626 55 35.0953 55H19.9047C12.9374 55 9.45377 55 6.79262 53.6441C4.4518 52.4513 2.54864 50.5481 1.35593 48.2073C0 45.5463 0 42.0626 0 35.0953V19.9047Z" fill="#330000"/>
<path d="M26.653 34.5639H18.1301L16.396 40.0888C16.3479 40.2941 16.159 40.4395 15.9533 40.4292H11.6365C11.3903 40.4292 11.3042 40.2906 11.3782 40.013L18.7573 18.2161C18.8312 17.989 18.905 17.7305 18.9787 17.4404C19.0753 16.9354 19.1246 16.4223 19.1264 15.9079C19.1052 15.7558 19.2388 15.6216 19.3845 15.6429H25.251C25.4229 15.6429 25.5211 15.7059 25.5461 15.8321L33.9216 40.0509C33.9953 40.3033 33.9216 40.4294 33.7002 40.4292H28.9036C28.7355 40.4485 28.5748 40.3332 28.5347 40.1645L26.653 34.5639ZM19.4584 29.7958H25.288C24.3302 26.5229 23.2492 23.293 22.3732 19.9948C21.428 23.2987 20.3967 26.5893 19.4584 29.7958Z" fill="#FF9A00"/>
<path d="M38.9014 19.6543C38.525 19.6698 38.1498 19.6036 37.8 19.4602C37.4504 19.3168 37.1341 19.0991 36.8721 18.8218C36.6108 18.5323 36.4077 18.1928 36.2747 17.8226C36.1418 17.4525 36.0815 17.059 36.0972 16.6648C36.0838 16.2745 36.1508 15.8858 36.2938 15.5239C36.437 15.162 36.6529 14.8351 36.9275 14.5646C37.1993 14.2968 37.5203 14.0871 37.8719 13.9475C38.2233 13.8078 38.5983 13.741 38.975 13.751C39.8607 13.751 40.5555 14.0222 41.0597 14.5646C41.3143 14.8464 41.5121 15.177 41.642 15.5374C41.7716 15.8978 41.8309 16.281 41.816 16.6648C41.8315 17.0604 41.7692 17.4554 41.6329 17.8259C41.4968 18.1964 41.2892 18.535 41.0228 18.8218C40.7445 19.1033 40.4121 19.3225 40.0471 19.4659C39.682 19.6091 39.2919 19.6733 38.9014 19.6543ZM36.3555 40.051V21.9627C36.3555 21.7356 36.4535 21.6221 36.6507 21.6221H41.189C41.3854 21.6221 41.4838 21.7356 41.484 21.9627V40.051C41.484 40.3036 41.3856 40.4297 41.189 40.4295H36.6876C36.4663 40.4295 36.3555 40.3034 36.3555 40.051Z" fill="#FF9A00"/>
</svg>
