<svg width="76" height="60" viewBox="0 0 76 60" fill="none" xmlns="http://www.w3.org/2000/svg">
<g clip-path="url(#clip0_124_1017)">
<path d="M21.2319 23.7902C21.1475 26.4445 22.4741 27.6199 22.5069 28.3664C22.4913 28.5183 22.4395 28.6643 22.3559 28.7921C22.2723 28.92 22.1593 29.0259 22.0264 29.1011L20.5264 30.1512C20.3323 30.2872 20.1035 30.3653 19.8666 30.3761C19.8162 30.3738 18.9069 30.5906 17.4666 27.375C16.588 28.4718 15.4699 29.353 14.1982 29.9512C12.9265 30.5494 11.5347 30.8487 10.1295 30.8261C8.22172 30.9304 3.05141 29.7433 3.31742 24.239C3.1311 19.7531 7.30883 16.9664 11.6295 17.2019C12.4616 17.2043 14.1608 17.2453 17.1362 17.9367V16.1062C17.4514 13.0054 15.4135 10.5996 11.885 10.9605C11.6038 10.9617 9.61156 10.9019 6.51313 12.1453C5.65063 12.5414 5.54047 12.4758 5.25336 12.4758C4.385 12.4758 4.74242 9.95856 4.90883 9.63981C5.51938 8.88981 9.11117 7.48942 12.6362 7.50934C14.9931 7.3009 17.3374 8.02831 19.1623 9.53435C19.9042 10.3641 20.4701 11.3357 20.826 12.3903C21.1819 13.4449 21.3204 14.5607 21.233 15.6703L21.2319 23.7902V23.7902ZM11.1045 27.5859C14.9049 27.5308 16.5139 25.2457 16.8807 24.0152C17.169 22.8375 17.1209 22.0922 17.1209 20.8043C15.9877 20.5324 14.3565 20.2359 12.485 20.2336C10.7096 20.1 7.46703 20.8933 7.59359 24.014C7.44828 25.9816 8.89672 27.6937 11.1045 27.5859V27.5859ZM31.1342 30.2871C30.2131 30.3715 29.7842 29.7176 29.6483 29.0719L23.8123 9.77692C23.6987 9.45114 23.6237 9.11481 23.5873 8.77145C23.5658 8.6299 23.6014 8.48558 23.6862 8.37022C23.771 8.25486 23.8981 8.17789 24.0397 8.15622C24.0678 8.15153 23.7901 8.15622 26.6471 8.15622C27.676 8.05309 28.0112 8.86286 28.1178 9.37146L32.3037 25.875L36.1897 9.37146C36.2518 8.99411 36.5342 8.07419 37.6897 8.17145H39.7006C39.9549 8.15036 41.0026 8.11286 41.1866 9.38669L45.103 26.1011L49.4237 9.38669C49.4799 9.13122 49.7424 8.05427 50.9096 8.17145H53.2205C53.3201 8.15622 53.9412 8.07653 53.8358 9.17692C53.7854 9.39372 54.2354 7.9277 47.6541 29.0871C47.5194 29.7328 47.0893 30.3867 46.1682 30.3023H43.978C42.6959 30.4371 42.5119 29.1703 42.492 29.0426L38.6061 12.9726L34.7647 29.0261C34.7459 29.1539 34.5619 30.4207 33.2787 30.2859H31.1342V30.2871ZM63.1826 30.9469C62.4936 30.948 59.2076 30.9117 56.4608 29.5066C56.1871 29.3908 55.9541 29.1963 55.7911 28.9478C55.6282 28.6993 55.5427 28.408 55.5455 28.1109V26.8511C55.5455 25.8609 56.2721 26.0426 56.5803 26.1609C57.7569 26.6367 58.5116 26.9976 59.9565 27.2859C64.2514 28.1683 66.1405 27.0164 66.6034 26.7609C68.1444 25.8457 68.2662 23.7515 67.2186 22.6652C65.9905 21.6351 65.4045 21.5965 60.9924 20.2043C60.4487 20.0531 55.8713 18.6093 55.8608 14.0683C55.7893 10.759 58.7963 7.48474 64.0076 7.51169C65.4924 7.51052 69.4487 7.99567 70.5198 9.34216C70.678 9.58708 70.7565 9.87536 70.7448 10.1672V11.3519C70.7448 11.8722 70.5549 12.1324 70.174 12.1324C69.2705 12.0316 67.6674 10.8234 64.4131 10.8726C63.6057 10.8304 59.7385 10.9793 59.9119 13.7988C59.8616 16.0207 63.0303 16.8539 63.3924 16.95C67.6651 18.2355 69.0936 18.4488 70.7893 20.4164C72.7979 23.0238 71.7151 26.0765 71.2991 26.9133C69.0631 31.3066 63.2811 30.9492 63.1826 30.9469V30.9469ZM67.8936 43.2351C59.6869 49.2961 47.7737 52.5223 37.6018 52.5223C23.8769 52.6128 10.6145 47.5661 0.421721 38.3742C-0.343513 37.684 0.331487 36.7383 1.26196 37.2644C12.5687 43.7322 25.3704 47.1306 38.3963 47.1223C48.1237 47.0701 57.745 45.0968 66.7076 41.3156C68.0881 40.7297 69.2588 42.2297 67.8936 43.2351V43.2351ZM71.3143 39.334C70.2643 37.984 64.3674 38.7035 61.7272 39.0187C60.9315 39.109 60.7967 38.4187 61.5174 37.909C66.2131 34.6078 73.9252 35.5535 74.8112 36.6633C75.6959 37.773 74.5709 45.5004 70.1752 49.1918C69.5002 49.7625 68.8545 49.4613 69.1545 48.7113C70.1436 46.2211 72.3643 40.6851 71.3143 39.334Z" fill="#3D424A"/>
</g>
<defs>
<clipPath id="clip0_124_1017">
<rect width="75" height="60" fill="white" transform="translate(0.0898438)"/>
</clipPath>
</defs>
</svg>
