<svg width="35" height="53" viewBox="0 0 35 53" fill="none" xmlns="http://www.w3.org/2000/svg">
<path fill-rule="evenodd" clip-rule="evenodd" d="M17.5 26.2498C17.5 21.4174 21.4176 17.4998 26.25 17.4998C31.0823 17.4998 34.9999 21.4174 34.9999 26.2498C34.9999 31.0822 31.0823 34.9997 26.25 34.9997C21.4176 34.9997 17.5 31.0822 17.5 26.2498Z" fill="#1ABCFE"/>
<path fill-rule="evenodd" clip-rule="evenodd" d="M0 43.7498C0 38.9174 3.91749 34.9998 8.74996 34.9998H17.4999V43.7498C17.4999 48.5822 13.5823 52.4997 8.74996 52.4997C3.91749 52.4997 0 48.5822 0 43.7498Z" fill="#0ACF83"/>
<path fill-rule="evenodd" clip-rule="evenodd" d="M17.5 0V17.4999H26.25C31.0823 17.4999 34.9999 13.5823 34.9999 8.74996C34.9999 3.91749 31.0823 0 26.25 0H17.5Z" fill="#FF7262"/>
<path fill-rule="evenodd" clip-rule="evenodd" d="M0 8.74996C0 13.5823 3.91749 17.4999 8.74996 17.4999H17.4999V0H8.74996C3.91749 0 0 3.91749 0 8.74996Z" fill="#F24E1E"/>
<path fill-rule="evenodd" clip-rule="evenodd" d="M0 26.2498C0 31.0822 3.91749 34.9997 8.74996 34.9997H17.4999V17.4998H8.74996C3.91749 17.4998 0 21.4174 0 26.2498Z" fill="#A259FF"/>
</svg>
