<svg width="51" height="62" viewBox="0 0 51 62" fill="none" xmlns="http://www.w3.org/2000/svg">
<path d="M23.6649 3.4516C23.4205 3.6097 23.2215 3.83468 23.0892 4.10253L0.0610352 47.4577L31.0628 14.6688L25.8238 4.07222C25.7233 3.87587 25.5862 3.7028 25.4208 3.56322C25.2554 3.42364 25.0651 3.32041 24.861 3.2597C24.657 3.19899 24.4434 3.18195 24.233 3.20971C24.0226 3.23747 23.8196 3.30946 23.6362 3.4213L23.6649 3.4516Z" fill="#FFCB2A"/>
<path d="M9.81925 0.878101C9.66593 0.570354 9.42417 0.321314 9.12841 0.166567C8.83362 0.0160073 8.50085 -0.0316685 8.1785 0.0303773C7.85275 0.0800717 7.55304 0.245698 7.32934 0.499651C7.09319 0.737183 6.94091 1.05211 6.89755 1.39274L0.0898438 47.4576L17.1451 15.3197L9.81925 0.878101Z" fill="#F9A01B"/>
<path d="M43.6132 5.05618C43.5655 4.75456 43.4412 4.47204 43.2533 4.23867C43.0639 4.01136 42.8188 3.84316 42.5447 3.75239C42.2706 3.66163 41.978 3.65185 41.6989 3.72403C41.4218 3.79984 41.1686 3.95124 40.9649 4.163L0.0898438 47.4426L22.7007 60.8548C23.4014 61.2617 24.1887 61.4751 24.9891 61.4751C25.7895 61.4751 26.5768 61.2617 27.2775 60.8548L50.0898 47.4426L43.6132 5.05618Z" fill="#FFCB2A"/>
<path d="M17.1451 15.3196L21.6788 24.5992L0.0898438 47.4424L17.1451 15.3196Z" fill="#F57F20"/>
</svg>
