<svg width="60" height="60" viewBox="0 0 60 60" fill="none" xmlns="http://www.w3.org/2000/svg">
<path fill-rule="evenodd" clip-rule="evenodd" d="M30 0C46.569 0 60 13.5862 60 30.3487C60 43.7545 51.414 55.1269 39.501 59.1436C37.98 59.4426 37.44 58.4948 37.44 57.6868C37.44 56.6863 37.476 53.4185 37.476 49.3574C37.476 46.5277 36.516 44.6808 35.439 43.7395C42.12 42.9876 49.14 40.4211 49.14 28.7646C49.14 25.4494 47.976 22.7441 46.05 20.6188C46.362 19.8522 47.391 16.7653 45.756 12.5858C45.756 12.5858 43.242 11.7726 37.515 15.6975C35.118 15.0256 32.55 14.6875 30 14.6757C27.45 14.6875 24.885 15.0256 22.491 15.6975C16.758 11.7726 14.238 12.5858 14.238 12.5858C12.609 16.7653 13.638 19.8522 13.947 20.6188C12.03 22.7441 10.857 25.4494 10.857 28.7646C10.857 40.3915 17.862 42.9974 24.525 43.7641C23.667 44.5218 22.89 45.8586 22.62 47.8211C20.91 48.5966 16.566 49.9387 13.89 45.3004C13.89 45.3004 12.303 42.3844 9.291 42.1713C9.291 42.1713 6.366 42.133 9.087 44.0155C9.087 44.0155 11.052 44.9479 12.417 48.4555C12.417 48.4555 14.178 53.8722 22.524 52.037C22.539 54.5737 22.566 56.9645 22.566 57.6868C22.566 58.4889 22.014 59.4277 20.517 59.1465C8.59499 55.1357 0 43.7575 0 30.3487C0 13.5862 13.434 0 30 0Z" fill="#3D424A"/>
</svg>
