<svg width="55" height="55" viewBox="0 0 55 55" fill="none" xmlns="http://www.w3.org/2000/svg">
<path d="M0 19.9047C0 12.9374 0 9.45377 1.35593 6.79262C2.54864 4.4518 4.4518 2.54864 6.79262 1.35593C9.45377 0 12.9374 0 19.9047 0H35.0953C42.0626 0 45.5463 0 48.2073 1.35593C50.5481 2.54864 52.4513 4.4518 53.6441 6.79262C55 9.45377 55 12.9374 55 19.9047V35.0953C55 42.0626 55 45.5463 53.6441 48.2073C52.4513 50.5481 50.5481 52.4513 48.2073 53.6441C45.5463 55 42.0626 55 35.0953 55H19.9047C12.9374 55 9.45377 55 6.79262 53.6441C4.4518 52.4513 2.54864 50.5481 1.35593 48.2073C0 45.5463 0 42.0626 0 35.0953V19.9047Z" fill="#001E36"/>
<path d="M11.7861 40.2997V16.1139C11.7861 15.9495 11.8549 15.8554 12.0153 15.8554C14.3835 15.8554 16.7507 15.7144 19.1194 15.7144C22.9633 15.7144 27.1252 17.0287 28.5841 21.0497C28.9279 22.037 29.1111 23.0476 29.1111 24.1054C29.1111 26.1268 28.6529 27.7955 27.7361 29.1118C25.1755 32.7885 20.7374 32.7314 16.7591 32.7314V40.2764C16.7902 40.4997 16.5998 40.6054 16.4154 40.6054H12.0611C11.8778 40.6054 11.7861 40.5113 11.7861 40.2997ZM16.7819 20.3917V28.2891C18.3594 28.4046 20.01 28.4172 21.5257 27.9132C23.199 27.4303 24.1154 25.9821 24.1154 24.2464C24.1617 22.7675 23.356 21.3485 21.9841 20.8148C20.4867 20.1921 18.3983 20.1548 16.7819 20.3917Z" fill="#31A8FF"/>
<path d="M43.4053 26.7288C42.7119 26.3632 41.9734 26.0959 41.2099 25.934C40.2289 25.7032 36.3596 24.8947 36.3581 26.9179C36.3924 28.0474 38.1854 28.6007 38.9776 28.9235C41.7589 29.8783 44.9061 31.5851 44.8442 35.0161C44.9292 39.2872 40.7909 40.9948 37.2436 40.9952C35.3969 41.0142 33.4731 40.7282 31.7831 39.9354C31.6216 39.85 31.5179 39.6675 31.5248 39.4813V35.3944C31.5065 35.2306 31.6825 35.0874 31.82 35.2053C33.4759 36.2066 35.4386 36.693 37.3544 36.7189C38.2 36.7189 39.8759 36.637 39.8633 35.3944C39.8633 34.2021 37.8584 33.6539 37.0591 33.351C35.9006 32.9375 34.8022 32.3645 33.7939 31.6481C32.3847 30.643 31.5008 29.0315 31.5248 27.2585C31.5165 23.2369 35.3258 21.4317 38.7565 21.4309C40.3601 21.4175 42.0824 21.5364 43.5753 22.1877C43.7899 22.2508 43.8343 22.4771 43.8336 22.6796V26.5017C43.8471 26.739 43.5837 26.8197 43.4053 26.7288Z" fill="#31A8FF"/>
</svg>
