<svg width="66" height="65" viewBox="0 0 66 65" fill="none" xmlns="http://www.w3.org/2000/svg">
<g clip-path="url(#clip0_124_1015)">
<path d="M53.1816 22.4961C52.4961 22.2676 51.8105 22.0518 51.125 21.8486C51.2393 21.3789 51.3408 20.9092 51.4424 20.4394C53.0039 12.873 51.9756 6.79199 48.5098 4.78613C45.1709 2.86914 39.7246 4.8623 34.2148 9.66113C33.6689 10.1309 33.1357 10.626 32.6279 11.1211C32.2852 10.791 31.9297 10.4609 31.5742 10.1436C25.7979 5.01465 20.0088 2.85645 16.543 4.875C13.2168 6.80469 12.2266 12.5303 13.623 19.6904C13.7627 20.4014 13.915 21.0996 14.0928 21.8105C13.2803 22.0391 12.4805 22.293 11.7314 22.5596C4.95215 24.9082 0.0898438 28.6152 0.0898438 32.4492C0.0898438 36.4101 5.26953 40.3838 12.3154 42.7959C12.8867 42.9863 13.458 43.1767 14.042 43.3418C13.8516 44.1035 13.6865 44.8525 13.5342 45.6269C12.2012 52.6728 13.2422 58.2588 16.5684 60.1758C19.9961 62.1562 25.7598 60.125 31.3711 55.2119C31.8154 54.8183 32.2598 54.4121 32.7041 53.9805C33.2627 54.5264 33.8467 55.0469 34.4307 55.5547C39.8643 60.2265 45.2344 62.1182 48.5479 60.2012C51.9756 58.2207 53.0928 52.2158 51.6455 44.9033C51.5313 44.3447 51.4043 43.7734 51.2646 43.1894C51.6709 43.0752 52.0645 42.9482 52.458 42.8213C59.7832 40.3965 65.0898 36.4736 65.0898 32.4492C65.0898 28.6025 60.0879 24.8701 53.1816 22.4961V22.4961ZM36.0049 11.7178C40.7275 7.60449 45.1328 5.99219 47.1387 7.14746C49.2842 8.3789 50.1094 13.3555 48.7637 19.8936C48.6748 20.3252 48.5859 20.7441 48.4717 21.1631C45.6533 20.5283 42.7969 20.0713 39.9277 19.8174C38.2773 17.4561 36.4746 15.1963 34.5195 13.0762C35.0146 12.6064 35.4971 12.1621 36.0049 11.7178V11.7178ZM21.3164 39.0381C21.9639 40.1426 22.624 41.2471 23.3223 42.3262C21.3418 42.1103 19.374 41.793 17.4316 41.374C17.9902 39.5459 18.6885 37.6543 19.501 35.7246C20.085 36.8418 20.6816 37.9463 21.3164 39.0381V39.0381ZM17.4697 23.7656C19.2979 23.3594 21.2402 23.0293 23.2588 22.7754C22.5859 23.8291 21.9258 24.9082 21.3037 26C20.6816 27.0791 20.0723 28.1836 19.501 29.3008C18.7012 27.4092 18.0283 25.5557 17.4697 23.7656ZM20.9482 32.5127C21.7861 30.7607 22.7002 29.0469 23.665 27.3584C24.6299 25.6699 25.6709 24.0322 26.7627 22.4199C28.667 22.2803 30.6094 22.2041 32.5898 22.2041C34.5703 22.2041 36.5254 22.2803 38.417 22.4199C39.4961 24.0195 40.5244 25.6572 41.502 27.333C42.4795 29.0088 43.3936 30.7226 44.2568 32.4619C43.4062 34.2139 42.4922 35.9404 41.5146 37.6416C40.5498 39.3301 39.5215 40.9678 38.4424 42.5928C36.5508 42.7324 34.583 42.7959 32.5898 42.7959C30.5967 42.7959 28.667 42.7324 26.8008 42.6182C25.6963 41.0059 24.6553 39.3555 23.6777 37.667C22.7002 35.9785 21.7988 34.2646 20.9482 32.5127ZM43.876 39.0127C44.5234 37.8955 45.1328 36.7656 45.7295 35.623C46.542 37.4639 47.2529 39.3301 47.875 41.2471C45.9072 41.6914 43.9141 42.0342 41.9082 42.2627C42.5937 41.1963 43.2412 40.1045 43.876 39.0127ZM45.7041 29.3008C45.1074 28.1836 44.498 27.0664 43.8633 25.9746C43.2412 24.8955 42.5938 23.8291 41.9209 22.7754C43.9648 23.0293 45.9199 23.3721 47.748 23.791C47.1641 25.6699 46.4785 27.498 45.7041 29.3008V29.3008ZM32.6152 15.0186C33.9482 16.4658 35.2051 17.9893 36.373 19.5635C33.8594 19.4492 31.333 19.4492 28.8193 19.5635C30.0635 17.9258 31.3457 16.4023 32.6152 15.0186ZM17.8887 7.23633C20.0215 5.99219 24.7568 7.76953 29.7461 12.1875C30.0635 12.4668 30.3809 12.7715 30.7109 13.0762C28.7432 15.1963 26.9277 17.4561 25.2646 19.8174C22.3955 20.0713 19.5518 20.5156 16.7334 21.1377C16.5684 20.4902 16.4287 19.8301 16.2891 19.1699C15.0957 13.0254 15.8828 8.3916 17.8887 7.23633V7.23633ZM14.7783 40.7012C14.2451 40.5488 13.7246 40.3838 13.2041 40.206C10.5 39.3555 7.42773 38.0098 5.20605 36.2451C3.92383 35.3564 3.06055 33.9853 2.81934 32.4492C2.81934 30.126 6.83105 27.1553 12.6201 25.1367C13.3437 24.8828 14.0801 24.6543 14.8164 24.4385C15.6797 27.1934 16.7207 29.8975 17.9268 32.5127C16.708 35.166 15.6543 37.9082 14.7783 40.7012V40.7012ZM29.5811 53.1426C27.4863 55.0596 25.0615 56.583 22.4209 57.624C21.0117 58.2969 19.3867 58.3603 17.9395 57.789C15.9209 56.6211 15.083 52.1396 16.2256 46.1094C16.3652 45.3984 16.5176 44.6875 16.6953 43.9892C19.5391 44.5986 22.4082 45.0176 25.3154 45.2334C26.9912 47.6074 28.832 49.8799 30.7998 52.0127C30.3936 52.4062 29.9873 52.7871 29.5811 53.1426ZM32.6914 50.0576C31.3965 48.6611 30.1016 47.1123 28.8447 45.4492C30.0635 45.5 31.3203 45.5254 32.5898 45.5254C33.8975 45.5254 35.1797 45.5 36.4492 45.4365C35.2812 47.0488 34.0244 48.5849 32.6914 50.0576V50.0576ZM49.2842 53.8662C49.1699 55.415 48.4082 56.8623 47.1895 57.8398C45.1709 59.0078 40.8672 57.4844 36.2207 53.498C35.6875 53.041 35.1543 52.5459 34.6084 52.0381C36.5508 49.8926 38.3408 47.6201 39.9658 45.2334C42.873 44.9922 45.7676 44.5478 48.624 43.9004C48.751 44.4209 48.8652 44.9414 48.9668 45.4492C49.5889 48.1914 49.6904 51.0478 49.2842 53.8662V53.8662ZM51.5947 40.2187C51.2393 40.333 50.8838 40.4473 50.5156 40.5488C49.627 37.7812 48.5352 35.0771 47.2783 32.4492C48.4971 29.8594 49.5254 27.1934 50.3887 24.4639C51.0488 24.6543 51.6836 24.8574 52.293 25.0605C58.209 27.0918 62.3604 30.1133 62.3604 32.4238C62.3604 34.9121 57.9297 38.124 51.5947 40.2187ZM32.5898 38.3144C35.8018 38.3144 38.4043 35.7119 38.4043 32.5C38.4043 29.2881 35.8018 26.6855 32.5898 26.6855C29.3779 26.6855 26.7754 29.2881 26.7754 32.5C26.7754 35.7119 29.3779 38.3144 32.5898 38.3144Z" fill="#33E0FF"/>
</g>
<defs>
<clipPath id="clip0_124_1015">
<rect width="65" height="65" fill="white" transform="translate(0.0898438)"/>
</clipPath>
</defs>
</svg>
