<svg width="55" height="55" viewBox="0 0 55 55" fill="none" xmlns="http://www.w3.org/2000/svg">
<path d="M49.7113 25.3837C52.6318 25.3837 54.9993 23.0162 54.9993 20.0957C54.9993 17.1752 52.6316 14.8077 49.7111 14.8077C46.7904 14.8077 44.4224 17.1754 44.4224 20.0961V25.3837H49.7113ZM34.9032 25.3837C37.8239 25.3837 40.1917 23.016 40.1917 20.0953V5.28845C40.1917 2.36772 37.8239 0 34.9032 0C31.9825 0 29.6147 2.36772 29.6147 5.28845V20.0953C29.6147 23.016 31.9825 25.3837 34.9032 25.3837Z" fill="#2EB67D"/>
<path d="M5.28801 29.6162C2.36751 29.6162 0 31.9837 0 34.9042C0 37.8247 2.36775 40.1923 5.28822 40.1923C8.20895 40.1923 10.5769 37.8245 10.5769 34.9038V29.6162H5.28801ZM20.0961 29.6162C17.1754 29.6162 14.8077 31.984 14.8077 34.9047V49.7115C14.8077 52.6322 17.1754 54.9999 20.0961 54.9999C23.0168 54.9999 25.3846 52.6322 25.3846 49.7115V34.9047C25.3846 31.984 23.0168 29.6162 20.0961 29.6162Z" fill="#E01E5A"/>
<path d="M29.6162 49.7119C29.6162 52.6324 31.9837 54.9999 34.9042 54.9999C37.8247 54.9999 40.1923 52.6322 40.1923 49.7117C40.1923 46.791 37.8245 44.423 34.9038 44.423H29.6162V49.7119ZM29.6162 34.9038C29.6162 37.8245 31.984 40.1922 34.9047 40.1922H49.7115C52.6322 40.1922 54.9999 37.8245 54.9999 34.9038C54.9999 31.9831 52.6322 29.6153 49.7115 29.6153H34.9047C31.984 29.6153 29.6162 31.9831 29.6162 34.9038Z" fill="#ECB22E"/>
<path d="M25.3837 5.28801C25.3837 2.36751 23.0162 0 20.0957 0C17.1752 0 14.8077 2.36775 14.8077 5.28822C14.8077 8.20897 17.1754 10.5769 20.0961 10.5769H25.3837V5.28801ZM25.3837 20.0961C25.3837 17.1754 23.016 14.8077 20.0953 14.8077H5.28845C2.36773 14.8077 0 17.1754 0 20.0961C0 23.0168 2.36773 25.3846 5.28845 25.3846H20.0953C23.016 25.3846 25.3837 23.0168 25.3837 20.0961Z" fill="#36C5F0"/>
</svg>
