<svg width="70" height="70" viewBox="0 0 70 70" fill="none" xmlns="http://www.w3.org/2000/svg">
<path d="M30.9015 53.3818C31.2784 56.9872 29.1717 57.9756 26.2251 57.3311C23.549 56.7458 19.1969 56.1857 18.677 54.6002C14.8459 42.9166 11.7907 30.9786 8.48535 19.0993C18.7249 17.0904 18.6541 17.1133 21.683 26.4781C22.7205 29.6861 24.2104 32.7478 25.8774 36.5754C27.808 42.6436 29.3548 48.0127 30.9015 53.3818Z" fill="#7DE4A2"/>
<path d="M53.2196 53.3932C52.2088 54.7204 51.0462 57.2612 50.2145 57.1572C47.183 56.7778 42.8018 56.3902 41.6087 54.3997C39.2522 50.4685 38.6838 45.4655 36.8853 40.0873C34.4921 33.1405 32.5895 27.0122 30.687 20.884C33.524 19.9911 36.3307 18.6061 39.2117 18.4292C40.5004 18.3501 42.5838 20.4434 43.185 21.9874C44.8761 26.3313 45.9851 30.9018 47.5235 36.408C49.5554 42.7531 51.3875 48.0731 53.2196 53.3932Z" fill="#01C63B"/>
<path d="M53.6905 53.1121C51.3876 48.0732 49.5555 42.7531 47.7617 36.8923C49.8214 30.4786 51.8427 24.6057 53.9598 18.4545C56.9872 18.4545 60.1836 18.4545 64.0787 18.4545C60.7334 30.0504 57.4474 41.4407 53.6905 53.1121Z" fill="#87E418"/>
<path d="M30.2053 21.1515C32.5893 27.0122 34.4918 33.1405 36.3936 39.8235C34.8733 44.5268 33.3537 48.6755 31.3678 53.103C29.3547 48.0127 27.8079 42.6435 26.3335 36.7728C27.5118 31.3205 28.6178 26.3697 30.2053 21.1515Z" fill="#038A3A"/>
</svg>
