<svg width="28" height="46" viewBox="0 0 28 46" fill="none" xmlns="http://www.w3.org/2000/svg">
<path d="M26.1246 29.6483L27.548 31.0578C28.1507 31.6546 28.1507 32.6196 27.548 33.2101L15.09 45.5524C14.4873 46.1492 13.5127 46.1492 12.9164 45.5524L0.452027 33.2101C-0.150676 32.6133 -0.150676 31.6482 0.452027 31.0578L1.87543 29.6483C2.48454 29.0451 3.47836 29.0578 4.07465 29.6737L11.4353 37.3242L11.4353 1.52375C11.4353 0.679337 12.1214 0 12.9741 0H15.0259C15.8786 0 16.5647 0.679337 16.5647 1.52375L16.5647 37.3242L23.9253 29.6737C24.5216 29.0515 25.5155 29.0388 26.1246 29.6483Z" fill="#D9D9D9"/>
</svg>
