<svg width="70" height="70" viewBox="0 0 70 70" fill="none" xmlns="http://www.w3.org/2000/svg">
<path d="M40.4702 55.9825C41.7406 53.7593 42.8256 51.0096 44.3446 50.7443C49.3927 49.8626 51.7433 47.1389 51.8368 42.3082C51.9618 35.841 51.8677 29.3696 51.8677 22.3918C48.0611 22.1743 44.6971 21.9821 40.8667 21.7632C40.6975 19.2966 40.5449 17.0718 40.3594 14.3677C47.3138 14.3677 53.9406 14.3677 60.9449 14.3677C60.9449 24.6562 61.7312 35.0804 60.708 45.3239C59.8125 54.2894 51.9656 59.5438 43.2757 58.7086C42.2864 58.6135 41.4116 57.3278 40.4702 55.9825Z" fill="#0BC679"/>
<path d="M20.8752 34.9276C20.8846 37.6831 20.9028 39.7749 20.902 41.8666C20.8991 48.951 25.3482 50.9108 31.8766 50.7629C31.8766 53.406 31.8766 55.8058 31.8766 58.2069C20.4018 59.4516 13.4049 54.6092 11.621 44.2181C11.3091 42.4012 11.3215 40.5163 11.3121 38.6621C11.278 31.9843 11.2987 25.3063 11.2987 18.3129C18.4373 18.3129 24.8621 18.3129 31.8129 18.3129C31.8129 20.6462 31.8129 22.9922 31.8129 25.6632C28.4007 25.847 25.1901 26.0199 20.8752 26.2523C20.8752 28.9529 20.8752 31.6085 20.8752 34.9276Z" fill="#08C677"/>
</svg>
