<svg width="61" height="61" viewBox="0 0 61 61" fill="none" xmlns="http://www.w3.org/2000/svg">
<rect x="10.0288" y="21.4548" width="48.6305" height="35.7577" fill="white"/>
<path d="M0.0166016 0V60.073H60.0896V0H0.0166016ZM32.7081 46.8516C32.7081 52.698 29.2754 55.3664 24.2738 55.3664C19.7549 55.3664 17.1401 53.0332 15.7992 50.2039L20.3985 47.4282C21.2835 48.997 22.0881 50.3245 24.0324 50.3245C25.8829 50.3245 27.0629 49.6004 27.0629 46.7711V27.5826H32.7081V46.8516ZM46.0636 55.3664C40.8206 55.3664 37.4281 52.8723 35.7788 49.6005L40.3781 46.9454C41.585 48.9166 43.1673 50.3782 45.9429 50.3782C48.2761 50.3782 49.778 49.2116 49.778 47.5891C49.778 45.6582 48.2493 44.9743 45.6614 43.8345L44.2534 43.2311C40.177 41.5013 37.4818 39.3156 37.4818 34.7163C37.4818 30.479 40.7134 27.2608 45.7418 27.2608C49.3355 27.2608 51.91 28.5079 53.7605 31.7797L49.3623 34.5956C48.3968 32.8658 47.3509 32.182 45.7284 32.182C44.0791 32.182 43.0332 33.2279 43.0332 34.5956C43.0332 36.2852 44.0791 36.969 46.5061 38.0284L47.9141 38.6318C52.7146 40.6834 55.4098 42.7886 55.4098 47.5086C55.4098 52.5773 51.4139 55.3664 46.0636 55.3664Z" fill="#F7DF1E"/>
</svg>
