<svg width="56" height="63" viewBox="0 0 56 63" fill="none" xmlns="http://www.w3.org/2000/svg">
<g clip-path="url(#clip0_124_1019)">
<path d="M27.5898 62.3661C26.7673 62.3661 25.9325 62.1451 25.2081 61.7277L17.6334 57.2467C16.5039 56.6083 17.0564 56.3873 17.4247 56.2645C18.9347 55.7366 19.2416 55.6261 20.8499 54.7054C21.0218 54.6072 21.2427 54.644 21.4146 54.7545L27.2338 58.2043C27.4425 58.327 27.7372 58.327 27.9336 58.2043L50.6088 45.1172C50.8175 44.9944 50.9525 44.7489 50.9525 44.5034V18.3292C50.9525 18.0714 50.8175 17.8382 50.5965 17.7031L27.9336 4.62833C27.7249 4.50556 27.4425 4.50556 27.2338 4.62833L4.58314 17.7154C4.36216 17.8382 4.22712 18.0837 4.22712 18.3415V44.5034C4.22712 44.7489 4.36216 44.9944 4.58314 45.1049L10.7952 48.6897C14.1713 50.3717 16.2338 48.3951 16.2338 46.394V20.5636C16.2338 20.1953 16.5285 19.9129 16.8968 19.9129H19.7695C20.1255 19.9129 20.4325 20.1953 20.4325 20.5636V46.4063C20.4325 50.8996 17.9771 53.4777 13.7171 53.4777C12.4035 53.4777 11.3722 53.4777 8.49944 52.0536L2.55748 48.6284C1.08426 47.7813 0.175781 46.1975 0.175781 44.4911V18.3292C0.175781 16.635 1.08426 15.0391 2.55748 14.192L25.2081 1.10489C26.6445 0.294625 28.5474 0.294625 29.9715 1.10489L52.6467 14.2042C54.12 15.0513 55.0284 16.635 55.0284 18.3415V44.5034C55.0284 46.1975 54.12 47.7813 52.6467 48.6406L29.9715 61.7277C29.2472 62.1451 28.4247 62.3661 27.5898 62.3661ZM45.8945 36.5725C45.8945 31.6741 42.5798 30.3728 35.6188 29.452C28.572 28.519 27.8599 28.0402 27.8599 26.3951C27.8599 25.0324 28.4615 23.2154 33.6791 23.2154C38.332 23.2154 40.0508 24.2221 40.7628 27.3649C40.8242 27.6596 41.0943 27.8806 41.4012 27.8806H44.3476C44.5318 27.8806 44.7037 27.8069 44.8264 27.6719C44.9492 27.5368 45.0106 27.3527 44.9983 27.1685C44.5441 21.7545 40.947 19.2377 33.6791 19.2377C27.2092 19.2377 23.3543 21.9632 23.3543 26.5424C23.3543 31.5022 27.197 32.8772 33.3967 33.4911C40.8242 34.2154 41.4012 35.308 41.4012 36.769C41.4012 39.298 39.3633 40.3783 34.5876 40.3783C28.5842 40.3783 27.2706 38.8683 26.8287 35.885C26.7796 35.5658 26.5095 35.3326 26.178 35.3326H23.2439C22.8755 35.3326 22.5932 35.6272 22.5932 35.9833C22.5932 39.8013 24.668 44.356 34.5999 44.356C41.7695 44.3438 45.8945 41.5078 45.8945 36.5725V36.5725Z" fill="#4E9842"/>
</g>
<defs>
<clipPath id="clip0_124_1019">
<rect width="55" height="62.8571" fill="white" transform="translate(0.0898438)"/>
</clipPath>
</defs>
</svg>
