<svg width="50" height="53" viewBox="0 0 50 53" fill="none" xmlns="http://www.w3.org/2000/svg">
<path fill-rule="evenodd" clip-rule="evenodd" d="M38.7788 1.78495L47.8316 8.21093L47.8459 8.22175L47.9356 8.28769C48.4937 8.69973 49.0267 9.09307 49.3861 9.54415C49.8459 10.1215 50 10.7396 50 11.4721V45.8217C50 46.9984 49.7931 48.1765 49.0036 49.0806C48.205 49.9955 47.0014 50.4148 45.5068 50.5221L45.501 50.5224L13.3648 52.4812L13.358 52.4815C12.3017 52.5321 11.3724 52.493 10.5334 52.184C9.65755 51.8612 8.9958 51.2894 8.38161 50.5014L8.37835 50.4975L1.86863 41.9749L1.86472 41.9693C0.62331 40.3008 0 38.9026 0 37.2095V6.04542C0 5.02189 0.22417 3.94783 0.894399 3.08209C1.58646 2.18748 2.63954 1.66226 3.99075 1.54481L4.00964 1.54317L31.6575 0.118093C33.3492 -0.0278921 34.5697 -0.0708678 35.6606 0.178784C36.7877 0.436964 37.6834 0.983179 38.7788 1.78495ZM12.0511 46.3397V47.4223C12.0511 48.0469 12.2042 48.1889 12.2508 48.2266C12.3473 48.3037 12.6428 48.4405 13.4375 48.3966L45.1891 46.6346C45.8173 46.5998 45.9242 46.4217 45.9542 46.3718L45.9558 46.3692C46.0503 46.213 46.1142 45.9076 46.1142 45.2679V14.4083C46.1142 13.8719 46.0053 13.6806 45.977 13.6449L45.9754 13.6426L45.9747 13.6416L45.9728 13.6409C45.9714 13.6406 45.9701 13.6401 45.9689 13.6396C45.9516 13.6334 45.8832 13.614 45.7329 13.6275L45.7144 13.6291L12.603 15.4885C12.3997 15.5069 12.286 15.542 12.2277 15.5679C12.1814 15.5883 12.1713 15.602 12.1687 15.606L12.1681 15.6066C12.1466 15.6345 12.0508 15.7989 12.0508 16.3681L12.0511 46.3397ZM15.0106 11.3344L43.3818 9.85613L36.5303 4.81226L36.5175 4.80209C36.1073 4.48059 35.7007 4.19387 35.1751 3.99507C34.6577 3.79922 33.9712 3.66931 33.0022 3.75428L32.9859 3.75592L4.63589 5.36274H4.63263C4.53488 5.36859 4.43765 5.3813 4.34166 5.40079L9.93386 10.655C10.5976 11.1949 10.9469 11.359 11.347 11.4315C11.8481 11.5223 12.4939 11.4862 13.863 11.3937L15.0106 11.316V11.3344ZM3.85716 10.1579V37.6796C3.85716 37.8561 3.91418 38.0277 4.01942 38.1684L8.31188 43.8976V14.8095C8.31195 14.6915 8.28641 14.5748 8.23705 14.4678C8.18769 14.3608 8.11571 14.2659 8.02613 14.1898L8.00006 14.1675L3.85716 10.1579ZM39.6562 21.6603C39.8032 22.3295 39.6562 22.9994 38.9912 23.0758L37.8857 23.2966V39.6604C36.9255 40.1807 36.0415 40.4779 35.3029 40.4779C34.1227 40.4779 33.8275 40.1059 32.9442 38.9918L32.9432 38.9909L25.7124 27.5368V38.6185L27.9997 39.1401C27.9997 39.1401 27.9997 40.4793 26.1542 40.4793L21.0664 40.7765C20.9182 40.4779 21.0664 39.7346 21.5819 39.5866L22.9106 39.2156V24.5629L21.0664 24.4123C20.9185 23.7431 21.287 22.7763 22.3209 22.7012L27.7798 22.3312L35.3032 33.9335V23.6693L33.3857 23.4472C33.2374 22.6274 33.8275 22.0316 34.5645 21.9591L39.6562 21.6603Z" fill="#3D424A"/>
</svg>
